<svg width="590" height="52" viewBox="0 0 590 52" fill="none" xmlns="http://www.w3.org/2000/svg">
<path d="M556.766 20.2791L556.612 21.2671L556.766 20.2791L555.422 20.069C547.088 18.7666 538.63 17.4692 530.087 16.6556C509.493 14.6942 488.788 15.7132 468.46 16.7136L468.424 16.7153C463.098 16.9774 457.797 17.2383 452.525 17.4446C433.569 18.1867 416.261 20.106 397.942 26.682L398.28 27.6232L397.942 26.682L397.423 26.8682C376.373 34.4255 354.835 42.1453 333.185 41.8043C323.695 41.6549 314.629 39.5022 305.428 36.6393C301.749 35.4946 297.953 34.2008 294.091 32.8844L294.078 32.88C288.543 30.9934 282.874 29.0608 277.283 27.4818C258.587 22.2011 238.933 19.8505 219.472 20.8235C212.686 21.1628 206.156 22.1102 199.876 23.0214L199.855 23.0243C198.213 23.2626 196.588 23.4984 194.976 23.7208C187.109 24.8067 179.468 25.5948 171.398 25.01C145.265 23.1163 119.257 19.5271 93.1109 15.8456L89.6965 15.3645L89.6825 15.3626C64.7083 11.8431 39.5972 8.30432 14.3323 6.19892C12.1308 6.01546 10.1974 7.65141 10.014 9.85292C9.83052 12.0544 11.4665 13.9878 13.668 14.1713C38.6965 16.257 63.6024 19.7664 88.6343 23.2939L91.9955 23.7674C118.118 27.4455 144.379 31.0731 170.819 32.9891C179.752 33.6364 188.068 32.7502 196.07 31.6457C197.777 31.41 199.467 31.1651 201.144 30.9221L201.145 30.9219C207.41 30.0139 213.497 29.1323 219.872 28.8135C238.431 27.8856 257.216 30.1269 275.109 35.1806C280.61 36.7344 285.846 38.5236 291.186 40.3484L291.192 40.3503C295.052 41.6694 298.966 43.0068 303.051 44.278C312.546 47.2325 322.455 49.6364 333.059 49.8033C356.209 50.1679 378.949 42.0023 399.565 34.5994L399.648 34.5695L400.645 34.2116C417.858 28.0326 434.238 26.1666 452.838 25.4385C458.258 25.2264 463.659 24.9611 469.04 24.6969L469.042 24.6968C489.352 23.6994 509.365 22.7183 529.329 24.6195C537.601 25.4074 545.836 26.6681 554.187 27.973L555.569 28.1891L555.58 28.1909C563.444 29.4211 571.419 30.6686 579.454 31.5295C581.65 31.7648 583.622 30.1749 583.857 27.9784C584.092 25.7818 582.503 23.8104 580.306 23.575C572.473 22.7358 564.676 21.5163 556.766 20.2791Z" fill="#F71D01" stroke="black" stroke-width="2" stroke-linecap="round"/>
<path d="M553.766 16.2791L553.612 17.2671L553.766 16.2791L552.422 16.069C544.088 14.7666 535.63 13.4692 527.087 12.6556C506.493 10.6942 485.788 11.7132 465.46 12.7136L465.424 12.7153C460.098 12.9774 454.797 13.2383 449.525 13.4446C430.569 14.1867 413.261 16.106 394.942 22.682L395.28 23.6232L394.942 22.682L394.423 22.8682C373.373 30.4255 351.835 38.1453 330.185 37.8043C320.695 37.6549 311.629 35.5022 302.428 32.6393C298.749 31.4946 294.953 30.2008 291.091 28.8844L291.078 28.88C285.543 26.9934 279.874 25.0608 274.283 23.4818C255.587 18.2011 235.933 15.8505 216.472 16.8235C209.686 17.1628 203.156 18.1102 196.876 19.0214L196.855 19.0243C195.213 19.2626 193.588 19.4984 191.976 19.7208C184.109 20.8067 176.468 21.5948 168.398 21.01C142.265 19.1163 116.257 15.5271 90.1109 11.8456L86.6965 11.3645L86.6825 11.3626C61.7083 7.84309 36.5972 4.30432 11.3323 2.19892C9.13084 2.01546 7.19744 3.65141 7.01398 5.85292C6.83052 8.05443 8.46648 9.98783 10.668 10.1713C35.6965 12.257 60.6024 15.7664 85.6343 19.2939L88.9955 19.7674C115.118 23.4455 141.379 27.0731 167.819 28.9891C176.752 29.6364 185.068 28.7502 193.07 27.6457C194.777 27.41 196.467 27.1651 198.144 26.9221L198.145 26.9219C204.41 26.0139 210.497 25.1323 216.872 24.8135C235.431 23.8856 254.216 26.1269 272.109 31.1806C277.61 32.7344 282.846 34.5236 288.186 36.3484L288.192 36.3503C292.052 37.6694 295.966 39.0068 300.051 40.278C309.546 43.2325 319.455 45.6364 330.059 45.8033C353.209 46.1679 375.949 38.0023 396.565 30.5994L396.648 30.5695L397.645 30.2116C414.858 24.0326 431.238 22.1666 449.838 21.4385C455.258 21.2264 460.659 20.9611 466.04 20.6969L466.042 20.6968C486.352 19.6994 506.365 18.7183 526.329 20.6195C534.601 21.4074 542.836 22.6681 551.187 23.973L552.569 24.1891L552.58 24.1909C560.444 25.4211 568.419 26.6686 576.454 27.5295C578.65 27.7648 580.622 26.1749 580.857 23.9784C581.092 21.7818 579.503 19.8104 577.306 19.575C569.473 18.7358 561.676 17.5163 553.766 16.2791Z" fill="#FFA803" stroke="black" stroke-width="2" stroke-linecap="round"/>
</svg>
