<svg width="550" height="52" viewBox="0 0 550 52" fill="none" xmlns="http://www.w3.org/2000/svg">
<path d="M402.22 30.635L402.45 29.6618C391.54 27.0861 380.255 24.4405 368.577 23.6414C337.557 21.5191 307.576 25.1967 277.78 28.8518L277.737 28.8571C265.111 30.4059 252.52 31.9504 239.873 33.0545C198.682 36.6505 154.573 26.8563 113.96 17.0699C98.2937 13.295 82.9822 10.5042 66.1656 12.8149C56.947 14.0815 47.8569 16.0173 38.9051 18.0506C36.7846 18.5323 34.6733 19.019 32.5698 19.504L32.5694 19.5041C25.7497 21.0763 19.0119 22.6295 12.2371 23.9468C10.0686 24.3685 8.65244 26.4683 9.0741 28.6368C9.49576 30.8053 11.5955 32.2214 13.764 31.7998C20.6874 30.4536 27.595 28.861 34.4273 27.2858L34.4356 27.2838C36.523 26.8026 38.6034 26.3229 40.6771 25.8519C49.5841 23.8288 58.3956 21.9577 67.2546 20.7404C82.531 18.6413 96.6376 21.1249 112.085 24.8473C152.561 34.6003 197.891 44.7499 240.569 41.0241C253.706 39.8772 266.58 38.2969 279.326 36.7321L279.335 36.731C308.915 33.0998 337.812 29.5552 368.03 31.6228C378.953 32.3701 389.615 34.8514 400.611 37.4477L401.194 37.5853L401.23 37.5938C411.929 40.1204 422.963 42.7261 434.33 43.6004C452.185 44.9739 470.388 42.8575 488.239 39.6444C497.171 38.0366 506.063 36.1447 514.797 34.2631C515.581 34.0943 516.363 33.9257 517.143 33.7573C525.088 32.044 532.89 30.3615 540.549 28.9087C542.72 28.4971 544.146 26.4039 543.734 24.2335C543.322 22.063 541.229 20.6372 539.059 21.0488C531.294 22.5214 523.397 24.2247 515.472 25.9338L515.466 25.9351C514.682 26.1043 513.897 26.2734 513.113 26.4425C504.376 28.3246 495.604 30.19 486.822 31.7709C469.242 34.9353 451.809 36.9214 434.943 35.624C424.214 34.7987 413.71 32.3205 402.833 29.7522L402.45 29.6618L402.22 30.635Z" fill="#F71D01" stroke="black" stroke-width="2" stroke-linecap="round"/>
<path d="M399.22 26.635L399.45 25.6618C388.54 23.0861 377.255 20.4405 365.577 19.6414C334.557 17.5191 304.576 21.1967 274.78 24.8518L274.737 24.8571C262.111 26.4059 249.52 27.9504 236.873 29.0545C195.682 32.6505 151.573 22.8563 110.96 13.0699C95.2937 9.29502 79.9822 6.50418 63.1656 8.81486C53.947 10.0815 44.8569 12.0173 35.9051 14.0506C33.7846 14.5323 31.6733 15.019 29.5698 15.504L29.5694 15.5041C22.7497 17.0763 16.0119 18.6295 9.23708 19.9468C7.06856 20.3685 5.65244 22.4683 6.0741 24.6368C6.49576 26.8053 8.59552 28.2214 10.764 27.7998C17.6874 26.4536 24.595 24.861 31.4273 23.2858L31.4356 23.2838C33.523 22.8026 35.6034 22.3229 37.6771 21.8519C46.5841 19.8288 55.3956 17.9577 64.2546 16.7404C79.531 14.6413 93.6376 17.1249 109.085 20.8473C149.561 30.6003 194.891 40.7499 237.569 37.0241C250.706 35.8772 263.58 34.2969 276.326 32.7321L276.335 32.731C305.915 29.0998 334.812 25.5552 365.03 27.6228C375.953 28.3701 386.615 30.8514 397.611 33.4477L398.194 33.5853L398.23 33.5938C408.929 36.1204 419.963 38.7261 431.33 39.6004C449.185 40.9739 467.388 38.8575 485.239 35.6444C494.171 34.0366 503.063 32.1447 511.797 30.2631C512.581 30.0943 513.363 29.9257 514.143 29.7573C522.088 28.044 529.89 26.3615 537.549 24.9087C539.72 24.4971 541.146 22.4039 540.734 20.2335C540.322 18.063 538.229 16.6372 536.059 17.0488C528.294 18.5214 520.397 20.2247 512.472 21.9338L512.466 21.9351C511.682 22.1043 510.897 22.2734 510.113 22.4425C501.376 24.3246 492.604 26.19 483.822 27.7709C466.242 30.9353 448.809 32.9214 431.943 31.624C421.214 30.7987 410.71 28.3205 399.833 25.7522L399.45 25.6618L399.22 26.635Z" fill="#FFA803" stroke="black" stroke-width="2" stroke-linecap="round"/>
</svg>
