<svg width="30" height="30" viewBox="0 0 30 30" fill="none" xmlns="http://www.w3.org/2000/svg">
<path fill-rule="evenodd" clip-rule="evenodd" d="M12.4375 5.244C11.0675 5.92671 9.94669 6.50442 9.94692 6.52792C9.94753 6.58856 13.235 8.18124 13.3516 8.17736C13.4047 8.17566 13.7898 8.0061 14.2072 7.80062L14.9664 7.42707L15.7955 7.83477L16.6246 8.24255L17.9824 7.6589C20.0283 6.77943 20.2408 6.68306 20.2075 6.65068C20.1633 6.60772 19.4294 6.2306 17.4385 5.22791C16.4764 4.7433 15.5425 4.26816 15.3632 4.17201C15.184 4.07587 15.0128 3.99852 14.9829 4.00002C14.953 4.00152 13.8076 4.56131 12.4375 5.244ZM6.42873 8.22062L5.00257 8.92533V12.0182C5.00257 13.7193 5.0213 15.111 5.04427 15.111C5.06716 15.111 5.76883 14.82 6.6035 14.4644L8.12109 13.8178V10.5577L8.86268 10.9442C9.43414 11.2418 10.0059 11.5388 10.5781 11.8351L11.5519 12.3395L11.9852 12.1521C12.257 12.0343 12.5282 11.9154 12.7988 11.7954C13.008 11.7022 13.5214 11.481 13.9397 11.3037C14.3581 11.1263 14.7453 10.948 14.8002 10.9073C14.8732 10.8533 13.9837 10.3831 11.5104 9.16812C9.6461 8.25226 8.06093 7.50584 7.98783 7.50942C7.91472 7.51299 7.21313 7.833 6.42873 8.22062ZM20.4645 8.41852C19.4932 8.83799 18.6978 9.19796 18.6969 9.21849C18.6961 9.23899 19.2254 9.54011 19.8734 9.88755C20.5213 10.2351 21.0514 10.538 21.0514 10.5608C21.0514 10.5835 20.4781 10.8493 19.7774 11.1514C19.0767 11.4535 17.3054 12.2187 15.8413 12.8519L10.9353 14.9733C9.70125 15.507 8.58886 15.988 8.46337 16.0424C5.94268 17.134 5.24984 17.4369 5.15469 17.4889C5.05902 17.5412 5.03735 17.8454 5.02032 19.3717L5 21.1922L6.27533 21.8139L7.55064 22.4355L9.31905 21.672C10.2917 21.2521 11.0875 20.8866 11.0875 20.8596C11.0875 20.8328 10.9077 20.7208 10.6881 20.6106C10.4685 20.5004 10.015 20.2565 9.68032 20.0685C9.34568 19.8804 9.01199 19.7079 8.93873 19.685C8.86549 19.6622 8.80663 19.6223 8.80783 19.5962C8.80905 19.5703 9.58777 19.2164 10.5382 18.8099C12.3843 18.0203 13.7971 17.4117 16.8301 16.0996C18.1863 15.513 19.5427 14.9267 20.8993 14.3409C22.0916 13.8261 23.4778 13.2248 23.9798 13.0047L24.8925 12.6047L24.9128 10.7634L24.9332 8.92229L23.6397 8.28716C22.9283 7.93787 22.3201 7.65294 22.2883 7.65398C22.2564 7.65494 21.4357 7.99895 20.4645 8.41852ZM24.546 15.0609C24.3554 15.15 23.9789 15.3168 23.7093 15.4315C23.4398 15.5462 22.9283 15.767 22.5727 15.9222L21.9261 16.2043L21.9114 17.8207C21.9032 18.7098 21.869 19.4332 21.8353 19.4285C21.7588 19.4176 20.5471 18.8231 19.329 18.1988C18.4499 17.7482 18.3947 17.7303 18.1881 17.8281C18.0687 17.8847 17.3549 18.191 16.6019 18.5088C15.8489 18.8266 15.2082 19.1073 15.1781 19.1328C15.148 19.1581 16.6636 19.9439 18.546 20.879L21.9685 22.5792L23.4306 21.8557C24.2346 21.4578 24.9183 21.0949 24.9498 21.0492C25.0207 20.9466 25.0146 14.8849 24.9436 14.8931C24.9156 14.8963 24.7366 14.9719 24.546 15.0609ZM16.4498 22.1758C16.1962 22.2801 15.9426 22.3846 15.6892 22.4892C14.9237 22.806 15.0737 22.8165 14.1631 22.3828C13.5566 22.094 13.2952 22.0049 13.1817 22.0481C13.0966 22.0806 12.3641 22.3959 11.5537 22.7487C10.7434 23.1016 10.0523 23.3903 10.018 23.3903C9.67799 23.3903 10.2432 23.7134 12.4242 24.7658L14.9819 26L16.0581 25.4917C16.65 25.2122 17.8439 24.6524 18.7112 24.2478C19.5784 23.843 20.2773 23.5014 20.2642 23.4885C20.251 23.4757 19.5244 23.1187 18.6493 22.6953L17.0583 21.9254L16.4498 22.1758Z" fill="white"/>
</svg>
