<svg width="30" height="30" viewBox="0 0 30 30" fill="none" xmlns="http://www.w3.org/2000/svg">
<path d="M27.991 15.0054V14.955C27.9655 7.82159 22.1334 2 14.9955 2C7.85762 2 2 7.82159 2 15.0054C2 22.1901 7.83112 28 14.9955 28C18.283 28.0022 21.4448 26.7555 23.8231 24.5193C24.0573 24.3084 24.197 24.0145 24.2113 23.7023C24.2256 23.39 24.1134 23.0849 23.8994 22.8541C23.6854 22.6233 23.3871 22.4857 23.0701 22.4716C22.7532 22.4575 22.4435 22.5681 22.2093 22.7789L22.1837 22.8041C21.1575 23.7653 19.9448 24.5122 18.6184 25C17.2919 25.4879 15.8791 25.7067 14.4647 25.6432C13.0503 25.5797 11.6635 25.2353 10.3876 24.6306C9.1117 24.0259 7.97296 23.1735 7.03975 22.1244L12.5912 13.3533V17.412C12.5912 19.3513 13.3589 19.9825 14.004 20.1589C14.6492 20.3354 15.6169 20.2076 16.6651 18.5698L19.7109 13.6972C19.7922 13.555 19.8863 13.4199 19.9905 13.293V15.7644C19.9905 17.5786 20.7325 19.0407 22.011 19.7457C22.6011 20.0623 23.2673 20.2155 23.9387 20.189C24.6102 20.1625 25.2618 19.9574 25.8244 19.5953C27.3011 18.6509 28.0943 16.997 27.991 15.0054ZM24.6135 17.5579C24.4085 17.6971 24.1693 17.7797 23.921 17.7973C23.6726 17.8148 23.4239 17.7667 23.2008 17.6578C22.689 17.3562 22.3811 16.6764 22.3811 15.7437V12.8869C22.3811 11.5274 21.8437 10.5433 20.9235 10.293C19.3618 9.82845 18.1866 11.7291 17.7507 12.4349L14.9955 16.7944V11.4266C14.9699 10.1922 14.5596 9.46111 13.792 9.23333C13.2803 9.08297 12.5127 9.1595 11.7715 10.2687L5.60596 19.9969C4.78573 18.457 4.35588 16.7444 4.3531 15.0054C4.3531 9.13249 9.13607 4.36879 14.9955 4.36879C20.855 4.36879 25.6379 9.13249 25.6379 15.0054V15.0567C25.6992 16.1893 25.33 17.0987 24.6145 17.5507L24.6135 17.5579Z" fill="white"/>
</svg>
