<svg width="30" height="30" viewBox="0 0 30 30" fill="none" xmlns="http://www.w3.org/2000/svg">
<path fill-rule="evenodd" clip-rule="evenodd" d="M24.986 8.56193C24.6814 11.7243 23.3625 19.3983 22.6916 22.9403C22.4076 24.4395 21.8482 24.9418 21.307 24.9911C20.1313 25.0981 19.2381 24.2231 18.0988 23.4856C16.3162 22.3318 15.3091 21.6138 13.5787 20.4881C11.5786 19.1866 12.8754 18.4717 14.0147 17.303C14.313 16.9968 19.4952 12.3423 19.5957 11.9204C19.6084 11.8673 19.6202 11.6704 19.5015 11.5665C19.3829 11.4626 19.208 11.4985 19.0822 11.5267C18.9034 11.5665 16.0551 13.425 10.539 17.1023C9.73041 17.6507 8.99856 17.9171 8.34188 17.9038C7.61873 17.8882 6.22783 17.4999 5.19375 17.1679C3.92548 16.7609 2.91751 16.5453 3.00533 15.8539C3.05043 15.4937 3.55283 15.1258 4.51175 14.7492C10.4164 12.2087 14.3533 10.5345 16.3234 9.72517C21.9486 7.41517 23.1173 7.01354 23.8791 7.00026C24.8334 6.98362 25.0637 7.76141 24.986 8.56193Z" fill="white"/>
</svg>
