<svg width="30" height="30" viewBox="0 0 30 30" fill="none" xmlns="http://www.w3.org/2000/svg">
<path fill-rule="evenodd" clip-rule="evenodd" d="M19.632 10.2033C18.7041 10.9734 17.7774 11.5354 17.049 11.9173C17.5814 12.2335 18.1675 12.3029 18.6696 12.184C18.9342 12.1216 19.1736 12.0061 19.3652 11.8475C19.5422 11.7007 19.6768 11.5162 19.7483 11.3041C19.8491 11.0031 19.8276 10.6304 19.632 10.2033ZM18.1394 16.4151L17.1753 15.8296C17.0821 15.7925 17.0023 15.7254 16.9476 15.6378C16.8928 15.5502 16.8659 15.4466 16.8706 15.3419C16.9589 13.377 16.4543 12.5081 15.7737 11.9626C15.5294 11.7672 15.2629 11.669 15 11.669C14.7371 11.669 14.4706 11.7672 14.2264 11.9626C13.5458 12.5081 13.0412 13.377 13.1295 15.3419C13.1342 15.4466 13.1072 15.5502 13.0525 15.6378C12.9977 15.7254 12.918 15.7925 12.8248 15.8296L11.8606 16.4151C13.7043 17.5016 14.2907 19.46 14.8799 21.4277C14.9198 21.5609 14.9597 21.6942 15 21.8272C15.0404 21.694 15.0803 21.5606 15.1202 21.4273C15.7094 19.4597 16.2958 17.5015 18.1394 16.4151ZM18.2013 3.70143C17.2317 3.25893 16.1144 3.03146 15 3C13.8856 3.03146 12.7684 3.25893 11.7987 3.70143C11.1273 4.00825 10.5008 4.41353 9.93349 4.89817C9.67738 5.11696 9.46643 5.32841 9.23397 5.57164C8.60722 5.59442 7.69127 4.86237 7.26611 4.17739C7.99794 6.69988 11.3374 9.67873 13.6494 10.8186C13.6504 10.8182 13.651 10.8175 13.6517 10.8171C14.0667 10.484 14.5333 10.3174 15 10.3174C15.4667 10.3174 15.9334 10.484 16.3483 10.8171C16.3491 10.8176 16.3497 10.8182 16.3506 10.8186C18.6626 9.67873 22.0021 6.69988 22.734 4.17739C22.3087 4.86237 21.3928 5.59442 20.766 5.57164C20.5337 5.32832 20.3227 5.11696 20.0665 4.89817C19.4992 4.41353 18.8727 4.00825 18.2013 3.70143ZM10.3681 10.2033C11.2959 10.9734 12.2227 11.5354 12.951 11.9173C12.4187 12.2335 11.8325 12.3029 11.3305 12.184C11.0659 12.1216 10.8265 12.0061 10.6348 11.8475C10.4579 11.7007 10.3233 11.5162 10.2517 11.3041C10.151 11.0031 10.1725 10.6304 10.3681 10.2033ZM21.971 7.58247C21.609 8.11776 21.159 8.71763 20.6482 9.2596L20.6483 9.25968L20.8078 9.60806C21.1176 10.2848 21.2203 11.0413 20.9788 11.7608C20.8233 12.2243 20.5391 12.6217 20.173 12.9251C19.8175 13.2197 19.3967 13.4183 18.9561 13.5226C18.6691 13.5906 18.3767 13.6185 18.0863 13.609C18.154 14.013 18.1837 14.4319 18.1856 14.8588L20.778 16.4331L18.7775 17.612C18.6176 17.7063 18.4654 17.8143 18.3225 17.9349C16.9772 19.2047 16.0696 22.5028 15.4108 24.8965C15.2619 25.4376 15.1257 25.9325 15.0001 26.3473C14.8745 25.9327 14.7383 25.438 14.5895 24.897C13.9308 22.5033 13.0231 19.2048 11.6778 17.9349C11.5348 17.8143 11.3826 17.7063 11.2227 17.612L9.22222 16.4331L11.8146 14.8588C11.8165 14.4319 11.8461 14.013 11.9139 13.609C11.6234 13.6185 11.331 13.5906 11.044 13.5226C10.6035 13.4183 10.1827 13.2197 9.82714 12.9251C9.46095 12.6217 9.1769 12.2243 9.02127 11.7608C8.77984 11.0413 8.88246 10.2847 9.19238 9.60806L9.3519 9.25968C8.84103 8.71763 8.39103 8.11784 8.02913 7.58255L7.8454 7.94628C7.25349 9.19092 6.94611 10.4306 6.94611 11.8259L6.94738 14.0398L6.93627 15.1875C6.89333 18.0051 6.31349 20.8557 5 23.4645L7.74825 21.1346L9.69278 24.4522L11.7356 22.4303L15 28L18.2644 22.4302L20.3073 24.4522L22.2518 21.1345L25 23.4644C23.6865 20.8557 23.1067 18.005 23.0638 15.1874L23.0527 14.0397L23.054 11.8258C23.054 10.4306 22.7465 9.19092 22.1548 7.9462L21.971 7.58247Z" fill="white"/>
</svg>
